<?xml version="1.0" encoding="utf-8"?>
<svg version="1.1" xmlns="http://www.w3.org/2000/svg" xmlns:xlink="http://www.w3.org/1999/xlink" x="0px" y="0px" viewBox="0 0 256 256" enable-background="new 0 0 256 256" xml:space="preserve">
<g><g><g><path fill="#FFFFFF" d="M35.8,25.1c-2.4,0.6-6.2,2.9-7.6,4.6c-3.1,3.8-3.4,4.9-3.5,15.1l-0.2,9.4h103.4h103.4l-0.3-2.1c-0.6-4.6-4-9.1-8.4-11.3l-2.3-1.2l-53.5-0.1l-53.6-0.1l-0.3-2.2c-0.4-2.4-1.9-5.8-3.6-7.8c-0.6-0.7-2.4-2.1-4.1-3l-2.9-1.6l-32.5-0.1C51.8,24.8,36.6,24.9,35.8,25.1z"/><path fill="#FFFFFF" d="M20.3,69.6c-5.9,2.1-9.6,6.5-10.3,12.2c-0.2,1.4,2.4,26.7,7.3,70.5c8.4,75.5,7.7,70.7,11.6,74.6c1,1,2.9,2.4,4.1,3l2.3,1.2l91.5,0.1c82.9,0.1,91.7,0,93.8-0.6c4.8-1.5,8.3-5,9.6-9.7c0.4-1.2,4.1-33,8.2-70.5L246,82l-0.8-2.5c-1.6-4.9-4.9-8.3-9.6-9.9C233.6,69,224,69,127.7,69C41.9,69,21.7,69.1,20.3,69.6z"/></g></g></g>
</svg>